<svg width="26" height="33" fill="none" xmlns="http://www.w3.org/2000/svg"><path d="M24.926 1a.5.5 0 00-.5-.5H1a.5.5 0 00-.5.5v1.06a.5.5 0 00.5.5h1.445v5.954a.5.5 0 00.5.5H22.57a.5.5 0 00.5-.5V2.56h1.356a.5.5 0 00.5-.5V1zM23.07 12.14a.5.5 0 00-.5-.5H2.945a.5.5 0 00-.5.5v7.868a.5.5 0 00.5.5H22.57a.5.5 0 00.5-.5v-7.867zm0 11.582a.5.5 0 00-.5-.5H2.945a.5.5 0 00-.5.5v5.865H1a.5.5 0 00-.5.5v1.15a.5.5 0 00.5.5h23.426a.5.5 0 00.5-.5v-1.15a.5.5 0 00-.5-.5H23.07v-5.864z" fill="#439ACA" stroke="#439ACA" stroke-linejoin="round"/><path d="M13.058 12.066a.2.2 0 00-.202-.06.18.18 0 00-.138.148c-.002.016-.24 1.587-2.157 4.037-.614.784-.731 1.781-.316 2.666.348.738 1.027 1.273 1.855 1.474-.416-.209-.73-.608-.74-1.272-.002-.02-.071-.84.724-1.98a.199.199 0 01.272-.049c.019.013.373.252.552.69.24-.383.545-1.045.3-1.69a.175.175 0 01.072-.209.203.203 0 01.233.008c.02.016 2.06 1.616 1.14 3.543-.012.028-.269.622-.866.942 1.416-.353 2.462-1.533 2.462-2.935 0-1.627-3.06-5.163-3.19-5.313z" fill="#fff"/></svg>