<svg width="26" height="38" fill="none" xmlns="http://www.w3.org/2000/svg"><path d="M12.735.875a.777.777 0 00-.823-.263.773.773 0 00-.564.649c-.008.069-.972 6.975-8.78 17.747-2.5 3.45-2.978 7.833-1.285 11.722a11.348 11.348 0 007.551 6.484c-1.695-.92-2.974-2.677-3.012-5.596-.008-.088-.29-3.69 2.947-8.703a.762.762 0 011.105-.215c.078.056 1.52 1.108 2.25 3.028.98-1.681 2.218-4.59 1.222-7.427a.801.801 0 01.29-.916.778.778 0 01.949.032c.086.072 8.387 7.108 4.64 15.579-.047.125-1.092 2.733-3.524 4.14 5.767-1.552 10.022-6.74 10.022-12.903 0-7.153-12.455-22.702-12.988-23.358z" fill="#fff"/></svg>