<svg width="44" height="47" fill="none" xmlns="http://www.w3.org/2000/svg"><path fill-rule="evenodd" clip-rule="evenodd" d="M4.31 7.344C4.31 3.288 7.524 0 11.491 0c3.966 0 7.182 3.288 7.182 7.344v18.733a11.83 11.83 0 014.31 9.173c0 6.49-5.146 11.75-11.492 11.75C5.145 47 0 41.74 0 35.25c0-3.712 1.685-7.021 4.31-9.172V7.343zm7.182 1.469c.793 0 1.436.657 1.436 1.468v20.563c0 .083-.007.164-.02.243 1.685.6 2.893 2.237 2.893 4.163 0 2.434-1.93 4.406-4.31 4.406s-4.309-1.972-4.309-4.406c0-1.926 1.209-3.563 2.893-4.163a1.53 1.53 0 01-.02-.243V10.28c0-.81.643-1.468 1.437-1.468z" fill="#4298C8"/><path d="M43.655 13.205a1.248 1.248 0 00-1.538-.886l-2.118.581-3.082-1.822 2.95-1.744 2.118.582a1.248 1.248 0 10.66-2.408L41.19 7.11l.404-1.54a1.222 1.222 0 10-2.365-.62l-.58 2.22-2.952 1.744V5.269l1.6-1.64a1.234 1.234 0 00-1.766-1.726l-1.054 1.078-1.055-1.078a1.235 1.235 0 00-1.766 1.725l1.6 1.64v3.645l-2.95-1.744-.582-2.22a1.222 1.222 0 10-2.365.62l.404 1.54-1.456.4a1.248 1.248 0 10.66 2.407l2.118-.582 2.95 1.744-3.082 1.822-2.12-.582a1.248 1.248 0 10-.66 2.408l1.456.4-.402 1.54a1.223 1.223 0 002.366.618l.58-2.218 3.083-1.822v3.487l-1.6 1.64a1.235 1.235 0 001.766 1.726l1.055-1.078 1.054 1.078a1.234 1.234 0 001.766-1.725l-1.6-1.64v-3.488l3.082 1.822.581 2.218a1.223 1.223 0 002.367-.619l-.403-1.54 1.454-.398a1.25 1.25 0 00.878-1.522z" fill="#4298C8"/></svg>