<svg width="36" height="34" fill="none" xmlns="http://www.w3.org/2000/svg"><path fill-rule="evenodd" clip-rule="evenodd" d="M36 15.589H24.59c0-2.411-1.286-4.5-3.376-5.625L27 0c5.304 3.054 9 8.84 9 15.589zM14.624 9.965a6.482 6.482 0 00-3.214 5.624H0C0 9.002 3.535 3.216 9 .002l5.624 9.964zm3.375 12.213c-1.285 0-2.41-.322-3.374-.965L9 31.338c2.732 1.607 5.785 2.41 9 2.41 3.214 0 6.428-.803 9-2.41l-5.786-9.963c-.964.482-2.089.803-3.214.803zm0-3.696a2.893 2.893 0 100-5.786 2.893 2.893 0 000 5.786z" fill="#fff"/></svg>