<svg width="26" height="33" viewBox="0 0 26 33" fill="none" xmlns="http://www.w3.org/2000/svg">
<path d="M24.9261 1C24.9261 0.723858 24.7023 0.5 24.4261 0.5H1C0.723858 0.5 0.5 0.723858 0.5 1V2.06081C0.5 2.33695 0.723858 2.56081 1 2.56081H2.44478V8.51395C2.44478 8.7901 2.66863 9.01395 2.94478 9.01395H22.5697C22.8458 9.01395 23.0697 8.7901 23.0697 8.51395V2.56081H24.4261C24.7023 2.56081 24.9261 2.33695 24.9261 2.06081V1ZM23.0697 12.1405C23.0697 11.8643 22.8458 11.6405 22.5697 11.6405H2.94478C2.66863 11.6405 2.44478 11.8643 2.44478 12.1405V20.0082C2.44478 20.2844 2.66863 20.5082 2.94478 20.5082H22.5697C22.8458 20.5082 23.0697 20.2844 23.0697 20.0082V12.1405ZM23.0697 23.7225C23.0697 23.4464 22.8458 23.2225 22.5697 23.2225H2.94488C2.66874 23.2225 2.44488 23.4464 2.44488 23.7225V29.5874H1.00011C0.723963 29.5874 0.500105 29.8112 0.500105 30.0874V31.2366C0.500105 31.5128 0.723963 31.7366 1.00011 31.7366H24.4261C24.7023 31.7366 24.9261 31.5128 24.9261 31.2366V30.0874C24.9261 29.8112 24.7023 29.5874 24.4261 29.5874H23.0697V23.7225Z" fill="#439ACA" stroke="#439ACA" stroke-linejoin="round"/>
<path d="M13.0584 12.0664C13.0103 12.0103 12.9314 11.9874 12.8562 12.0068C12.7812 12.0261 12.7273 12.084 12.7176 12.1542C12.7157 12.17 12.4789 13.7408 10.5612 16.1907C9.94697 16.9752 9.82957 17.9721 10.2454 18.8567C10.5925 19.5948 11.272 20.1295 12.1001 20.3314C11.6838 20.1223 11.3697 19.7225 11.3602 19.0586C11.3583 19.0386 11.289 18.2194 12.0841 17.0793C12.113 17.0376 12.1573 17.0087 12.2093 16.9996C12.2593 16.9905 12.3132 17.0013 12.3556 17.0304C12.3748 17.043 12.7291 17.2823 12.9081 17.7191C13.1488 17.3367 13.453 16.6752 13.2085 16.03C13.1796 15.9538 13.2085 15.8686 13.2797 15.8215C13.3509 15.7744 13.4453 15.7781 13.5127 15.8288C13.5338 15.8451 15.5728 17.4455 14.6525 19.372C14.641 19.4004 14.3843 19.9936 13.7869 20.3135C15.2035 19.9607 16.2486 18.7808 16.2486 17.3789C16.2486 15.7521 13.1893 12.2157 13.0582 12.0665L13.0584 12.0664Z" fill="white"/>
</svg>
