<svg width="26" height="38" viewBox="0 0 26 38" fill="none" xmlns="http://www.w3.org/2000/svg">
<path d="M12.7354 0.874597C12.5395 0.62773 12.2182 0.527243 11.9123 0.612331C11.6067 0.69714 11.3872 0.951846 11.3479 1.26057C11.34 1.32998 10.3759 8.23637 2.56879 19.0084C0.0683076 22.4575 -0.409662 26.8408 1.28343 30.7301C2.69616 33.9755 5.46252 36.3266 8.834 37.2142C7.13894 36.2947 5.86042 34.537 5.8217 31.6177C5.81403 31.5301 5.5317 27.9281 8.76886 22.9154C8.88656 22.7321 9.06682 22.6047 9.27834 22.5647C9.48219 22.5249 9.70168 22.5725 9.87397 22.7002C9.95244 22.7559 11.3945 23.8077 12.1234 25.7284C13.1032 24.047 14.3416 21.1383 13.3463 18.3015C13.2286 17.9668 13.3463 17.5923 13.6363 17.3851C13.9263 17.178 14.3104 17.194 14.5847 17.417C14.6708 17.4887 22.9716 24.5253 19.2249 32.9959C19.178 33.1207 18.1332 35.7291 15.7012 37.1353C21.4681 35.5841 25.7228 30.3965 25.7228 24.2327C25.7231 17.0797 13.268 1.5308 12.7345 0.875178L12.7354 0.874597Z" fill="white"/>
</svg>
