<svg width="44" height="47" viewBox="0 0 44 47" fill="none" xmlns="http://www.w3.org/2000/svg">
<path fill-rule="evenodd" clip-rule="evenodd" d="M4.30942 7.34378C4.30942 3.28802 7.52515 3.05176e-05 11.4918 3.05176e-05C15.4584 3.05176e-05 18.6742 3.28802 18.6742 7.34378V26.0775C21.299 28.2288 22.9836 31.5384 22.9836 35.25C22.9836 41.7394 17.8385 47 11.4918 47C5.14504 47 0 41.7394 0 35.25C0 31.5381 1.68461 28.2286 4.30942 26.0775V7.34378ZM11.4918 8.81253C12.2851 8.81253 12.9283 9.47019 12.9283 10.2813V30.8438C12.9283 30.9267 12.9215 31.008 12.9087 31.0874C14.5927 31.6867 15.8012 33.3239 15.8012 35.2501C15.8012 37.6836 13.8719 39.6563 11.4918 39.6563C9.11165 39.6563 7.18235 37.6836 7.18235 35.2501C7.18235 33.324 8.39087 31.6867 10.0748 31.0874C10.062 31.008 10.0553 30.9267 10.0553 30.8438V10.2813C10.0553 9.47019 10.6985 8.81253 11.4917 8.81253H11.4918Z" fill="#4298C8"/>
<path d="M43.6549 13.2053C43.4784 12.5332 42.787 12.1346 42.1169 12.3186L39.9989 12.9L36.917 11.0781L39.8678 9.33443L41.9849 9.91558C42.6553 10.0996 43.3468 9.70042 43.5227 9.0279C43.6956 8.36656 43.3044 7.68913 42.6451 7.50848L41.189 7.10948L41.5931 5.56938C41.7631 4.92144 41.38 4.25735 40.7339 4.0802C40.0775 3.9002 39.4005 4.29104 39.2281 4.94953L38.6471 7.16874L35.6962 8.91261V5.26879L37.2964 3.62814C37.7642 3.14847 37.764 2.38319 37.2959 1.9038C36.8118 1.40806 36.0146 1.40776 35.5301 1.90312L34.4757 2.98129L33.4213 1.90312C32.9368 1.40776 32.1396 1.40806 31.6555 1.9038C31.1874 2.38319 31.1872 3.14847 31.655 3.62814L33.2551 5.26879V8.91261L30.3043 7.16874L29.7233 4.94953C29.5509 4.29105 28.8739 3.9002 28.2175 4.0802C27.5714 4.25735 27.1883 4.92144 27.3583 5.56938L27.7624 7.10948L26.3063 7.50848C25.647 7.68913 25.2557 8.36656 25.4287 9.0279C25.6046 9.70042 26.2961 10.0996 26.9665 9.91558L29.0836 9.33443L32.0344 11.0781L28.9524 12.9L26.8322 12.3185C26.1618 12.1347 25.4703 12.534 25.2945 13.2066C25.1215 13.868 25.5129 14.5455 26.1722 14.7262L27.628 15.1251L27.2256 16.6652C27.0563 17.3132 27.4396 17.9769 28.0856 18.154C28.7424 18.3341 29.4198 17.943 29.5923 17.2841L30.1729 15.0656L33.2551 13.2438V16.7313L31.6549 18.3719C31.1871 18.8516 31.1874 19.6169 31.6555 20.0963C32.1395 20.592 32.9367 20.5923 33.4212 20.0969L34.4756 19.0188L35.5301 20.0969C36.0145 20.5923 36.8117 20.592 37.2958 20.0963C37.7639 19.6169 37.7642 18.8516 37.2963 18.3719L35.6962 16.7313V13.2438L38.7783 15.0656L39.359 17.2841C39.5314 17.943 40.2089 18.3341 40.8657 18.154C41.5116 17.9769 41.895 17.3132 41.7257 16.6652L41.3232 15.1251L42.7774 14.7266C43.4375 14.5457 43.8288 13.8672 43.6549 13.2053Z" fill="#4298C8"/>
</svg>
