<svg width="36" height="34" viewBox="0 0 36 34" fill="none" xmlns="http://www.w3.org/2000/svg">
<path fill-rule="evenodd" clip-rule="evenodd" d="M36.0001 15.5889H24.5892V15.5882C24.5892 13.1776 23.3036 11.0885 21.2141 9.96359L26.9999 0C32.3037 3.05373 36.0001 8.83938 36.0001 15.5889ZM14.624 9.96457C12.6957 11.0895 11.41 13.1786 11.41 15.5892L0 15.5899C0 9.00119 3.53543 3.21502 8.99935 0.000981867L14.624 9.96457ZM17.9993 22.1777C16.7136 22.1777 15.5887 21.8562 14.6245 21.2135L8.99955 31.3381C11.7316 32.9453 14.7849 33.7487 17.9998 33.7487C21.2138 33.7487 24.4282 32.9453 27 31.3381L21.2142 21.3745C20.2501 21.8568 19.1251 22.1783 18.0002 22.1783L17.9993 22.1777ZM17.9995 18.4818C19.5973 18.4818 20.8924 17.1867 20.8924 15.5889C20.8924 13.9914 19.5973 12.696 17.9995 12.696C16.4017 12.696 15.1066 13.9914 15.1066 15.5889C15.1066 17.1867 16.4017 18.4818 17.9995 18.4818Z" fill="white"/>
</svg>
